<svg width="3" height="15" viewBox="0 0 3 15" fill="none" xmlns="http://www.w3.org/2000/svg">
<path d="M1.49999 2.66666C1.86818 2.66666 2.16666 2.36818 2.16666 1.99999C2.16666 1.63181 1.86818 1.33333 1.49999 1.33333C1.13181 1.33333 0.833328 1.63181 0.833328 1.99999C0.833328 2.36818 1.13181 2.66666 1.49999 2.66666Z" fill="#9DA4B2"/>
<path d="M1.49999 8.16666C1.86818 8.16666 2.16666 7.86819 2.16666 7.5C2.16666 7.13181 1.86818 6.83333 1.49999 6.83333C1.13181 6.83333 0.833328 7.13181 0.833328 7.5C0.833328 7.86819 1.13181 8.16666 1.49999 8.16666Z" fill="#9DA4B2"/>
<path d="M1.49999 13.6667C1.86818 13.6667 2.16666 13.3682 2.16666 13C2.16666 12.6318 1.86818 12.3333 1.49999 12.3333C1.13181 12.3333 0.833328 12.6318 0.833328 13C0.833328 13.3682 1.13181 13.6667 1.49999 13.6667Z" fill="#9DA4B2"/>
<path d="M1.49999 2.66666C1.86818 2.66666 2.16666 2.36818 2.16666 1.99999C2.16666 1.63181 1.86818 1.33333 1.49999 1.33333C1.13181 1.33333 0.833328 1.63181 0.833328 1.99999C0.833328 2.36818 1.13181 2.66666 1.49999 2.66666Z" stroke="#9DA4B2" stroke-width="1.5" stroke-linecap="round" stroke-linejoin="round"/>
<path d="M1.49999 8.16666C1.86818 8.16666 2.16666 7.86819 2.16666 7.5C2.16666 7.13181 1.86818 6.83333 1.49999 6.83333C1.13181 6.83333 0.833328 7.13181 0.833328 7.5C0.833328 7.86819 1.13181 8.16666 1.49999 8.16666Z" stroke="#9DA4B2" stroke-width="1.5" stroke-linecap="round" stroke-linejoin="round"/>
<path d="M1.49999 13.6667C1.86818 13.6667 2.16666 13.3682 2.16666 13C2.16666 12.6318 1.86818 12.3333 1.49999 12.3333C1.13181 12.3333 0.833328 12.6318 0.833328 13C0.833328 13.3682 1.13181 13.6667 1.49999 13.6667Z" stroke="#9DA4B2" stroke-width="1.5" stroke-linecap="round" stroke-linejoin="round"/>
</svg>
